<svg width="104" height="100" viewBox="0 0 104 100" fill="none" xmlns="http://www.w3.org/2000/svg">
<path d="M74.1 28.4C81.6 33.3 88.3 41.7 89.9 51.6C91.5 61.6 88.2 73.2 80.7 81.1C73.2 89 61.6 93.2 51.3 91.9C41 90.5 32 83.8 24.6 75.9C17.3 68 11.5 59 12.2 50.8C13 42.6 20.3 35.1 27.7 30.1C35.1 25.2 42.6 22.7 50.4 22.2C58.3 21.8 66.7 23.4 74.1 28.4Z" fill="#6EBDA7" fill-opacity="0.5"/>
<path d="M22.4938 81.16C41.3001 81.16 55.1338 63.9893 55.1338 45.24H52.7337C52.7337 62.9707 39.6874 78.76 22.4938 78.76V81.16ZM55.1338 45.24C55.1338 38.3515 52.9929 32.4927 49.0088 28.3484C45.0191 24.1982 39.2886 21.88 32.3338 21.88V24.28C38.7389 24.28 43.8084 26.4018 47.2787 30.0116C50.7546 33.6273 52.7337 38.8485 52.7337 45.24H55.1338ZM32.3338 21.88C13.6071 21.88 -0.226249 38.9709 -0.226249 57.8H2.17375C2.17375 39.9891 15.2204 24.28 32.3338 24.28V21.88ZM-0.226249 57.8C-0.226249 64.6884 1.9145 70.5465 5.88755 74.6905C9.86642 78.8405 15.5769 81.16 22.4938 81.16V78.76C16.1306 78.76 11.0811 76.6395 7.61995 73.0295C4.15301 69.4135 2.17375 64.1916 2.17375 57.8H-0.226249ZM23.4538 64.68C21.6899 64.68 20.3951 64.001 19.5045 62.811C18.5809 61.5768 18.0138 59.6815 18.0138 57.16H15.6138C15.6138 59.9985 16.2466 62.4632 17.583 64.249C18.9524 66.079 20.9776 67.08 23.4538 67.08V64.68ZM18.0138 57.16C18.0138 52.8088 19.5167 48.0428 22.0058 44.3851C24.5064 40.7106 27.8457 38.36 31.4538 38.36V35.96C26.7418 35.96 22.7611 39.0094 20.0217 43.0349C17.2708 47.0772 15.6138 52.3112 15.6138 57.16H18.0138ZM31.4538 38.36C33.2176 38.36 34.5124 39.039 35.403 40.229C36.3266 41.4632 36.8938 43.3585 36.8938 45.88H39.2938C39.2938 43.0415 38.6609 40.5768 37.3245 38.791C35.9551 36.961 33.9299 35.96 31.4538 35.96V38.36ZM36.8938 45.88C36.8938 50.1866 35.3735 54.953 32.8721 58.6243C30.357 62.3157 27.0166 64.68 23.4538 64.68V67.08C28.1309 67.08 32.1105 64.0043 34.8554 59.9757C37.614 55.927 39.2938 50.6934 39.2938 45.88H36.8938ZM51.6737 79L50.4951 78.7748L50.2227 80.2H51.6737V79ZM95.5938 79V80.2H96.5697L96.7686 79.2445L95.5938 79ZM98.4738 65.16L99.6486 65.4045L99.9492 63.96H98.4738V65.16ZM78.3938 65.16L77.853 64.0887L78.3938 66.36V65.16ZM86.7937 60.92L87.3345 61.9913L87.3631 61.9768L87.391 61.9608L86.7937 60.92ZM59.8337 33.48L59.0039 32.6132L58.2205 33.3632L58.8877 34.2182L59.8337 33.48ZM68.0738 44.04L67.1277 44.7782L67.8997 45.7675L68.8535 44.9521L68.0738 44.04ZM77.3538 51.4L76.7105 50.3869L76.7026 50.392L77.3538 51.4ZM54.0737 66.44L53.4226 65.4321L52.9914 65.7106L52.8951 66.2148L54.0737 66.44ZM51.6737 80.2H95.5938V77.8H51.6737V80.2ZM96.7686 79.2445L99.6486 65.4045L97.2989 64.9155L94.4189 78.7555L96.7686 79.2445ZM98.4738 63.96H78.3938V66.36H98.4738V63.96ZM78.9345 66.2313L87.3345 61.9913L86.253 59.8487L77.853 64.0887L78.9345 66.2313ZM87.391 61.9608C97.2438 56.3075 104.314 49.7565 104.314 38.84H101.914C101.914 48.4035 95.8637 54.3325 86.1965 59.8792L87.391 61.9608ZM104.314 38.84C104.314 33.9006 102.348 29.6196 98.7571 26.5925C95.1827 23.5796 90.0869 21.88 83.9137 21.88V24.28C89.6606 24.28 94.1648 25.8604 97.2104 28.4275C100.239 30.9804 101.914 34.5794 101.914 38.84H104.314ZM83.9137 21.88C75.0123 21.88 66.7228 25.2227 59.0039 32.6132L60.6636 34.3468C67.9847 27.3373 75.6952 24.28 83.9137 24.28V21.88ZM58.8877 34.2182L67.1277 44.7782L69.0198 43.3018L60.7798 32.7418L58.8877 34.2182ZM68.8535 44.9521C73.7654 40.7533 77.803 38.36 82.6338 38.36V35.96C76.9045 35.96 72.3021 38.8467 67.294 43.1279L68.8535 44.9521ZM82.6338 38.36C83.8678 38.36 84.726 38.6002 85.2371 38.9344C85.6862 39.228 85.9137 39.6147 85.9137 40.2H88.3138C88.3138 38.7853 87.6613 37.6519 86.5505 36.9256C85.5015 36.2398 84.1197 35.96 82.6338 35.96V38.36ZM85.9137 40.2C85.9137 41.8621 84.9843 43.5755 83.2615 45.3554C81.5524 47.1212 79.2094 48.8004 76.7105 50.3869L77.997 52.4131C80.5381 50.7996 83.0751 48.9988 84.986 47.0246C86.8832 45.0645 88.3138 42.7779 88.3138 40.2H85.9137ZM76.7026 50.392L53.4226 65.4321L54.7249 67.4479L78.0049 52.4079L76.7026 50.392ZM52.8951 66.2148L50.4951 78.7748L52.8524 79.2252L55.2524 66.6652L52.8951 66.2148Z" fill="#1C1C1C" fill-opacity="0.8"/>
</svg>
