<svg width="100" height="100" viewBox="0 0 100 100" fill="none" xmlns="http://www.w3.org/2000/svg">
<path d="M77.5 18.5C85.2 23.7 90.8 32.7 90.5 41.4C90.3 50 84.3 58.2 79.3 67C74.3 75.8 70.3 85.3 63.1 89.5C55.8 93.8 45.3 92.8 35.4 89.4C25.6 86.1 16.4 80.4 12.7 72.3C9.00002 64.3 10.9 53.9 14.2 45.2C17.6 36.6 22.4 29.7 28.6 24.3C34.8 18.9 42.4 14.9 51.2 13.5C59.9 12.1 69.8 13.3 77.5 18.5Z" fill="#6EBDA7" fill-opacity="0.5"/>
<path d="M29.4469 81.16C48.2533 81.16 62.0869 63.9893 62.0869 45.24H59.6869C59.6869 62.9707 46.6405 78.76 29.4469 78.76V81.16ZM62.0869 45.24C62.0869 38.3515 59.9461 32.4927 55.962 28.3484C51.9723 24.1982 46.2417 21.88 39.2869 21.88V24.28C45.6921 24.28 50.7615 26.4018 54.2318 30.0116C57.7077 33.6273 59.6869 38.8485 59.6869 45.24H62.0869ZM39.2869 21.88C20.5603 21.88 6.72688 38.9709 6.72688 57.8H9.12688C9.12688 39.9891 22.1735 24.28 39.2869 24.28V21.88ZM6.72688 57.8C6.72688 64.6884 8.86762 70.5465 12.8407 74.6905C16.8195 78.8405 22.5301 81.16 29.4469 81.16V78.76C23.0837 78.76 18.0342 76.6395 14.5731 73.0295C11.1061 69.4135 9.12688 64.1916 9.12688 57.8H6.72688ZM30.4069 64.68C28.643 64.68 27.3482 64.001 26.4576 62.811C25.534 61.5768 24.9669 59.6815 24.9669 57.16H22.5669C22.5669 59.9985 23.1997 62.4632 24.5361 64.249C25.9056 66.079 27.9308 67.08 30.4069 67.08V64.68ZM24.9669 57.16C24.9669 52.8088 26.4698 48.0428 28.959 44.3851C31.4595 40.7106 34.7988 38.36 38.4069 38.36V35.96C33.695 35.96 29.7142 39.0094 26.9748 43.0349C24.2239 47.0772 22.5669 52.3112 22.5669 57.16H24.9669ZM38.4069 38.36C40.1708 38.36 41.4656 39.039 42.3561 40.229C43.2797 41.4632 43.8469 43.3585 43.8469 45.88H46.2469C46.2469 43.0415 45.614 40.5768 44.2776 38.791C42.9082 36.961 40.883 35.96 38.4069 35.96V38.36ZM43.8469 45.88C43.8469 50.1866 42.3266 54.953 39.8252 58.6243C37.3101 62.3157 33.9697 64.68 30.4069 64.68V67.08C35.084 67.08 39.0637 64.0043 41.8086 59.9757C44.5672 55.927 46.2469 50.6934 46.2469 45.88H43.8469ZM70.7069 79L69.5327 78.7522L69.2271 80.2H70.7069V79ZM86.2269 79V80.2H87.2028L87.4017 79.2445L86.2269 79ZM97.6669 24.04L98.8417 24.2845L99.1424 22.84H97.6669V24.04ZM85.1869 24.04V22.84H84.8582L84.5753 23.0075L85.1869 24.04ZM64.3869 36.36L63.7753 35.3275L62.9059 35.8425L63.2654 36.7868L64.3869 36.36ZM68.4669 47.08L67.3454 47.5068L67.8366 48.7976L69.0461 48.1309L68.4669 47.08ZM78.6269 41.48L79.801 41.7278L80.3421 39.1644L78.0476 40.4291L78.6269 41.48ZM70.7069 80.2H86.2269V77.8H70.7069V80.2ZM87.4017 79.2445L98.8417 24.2845L96.4921 23.7955L85.0521 78.7555L87.4017 79.2445ZM97.6669 22.84H85.1869V25.24H97.6669V22.84ZM84.5753 23.0075L63.7753 35.3275L64.9984 37.3925L85.7984 25.0725L84.5753 23.0075ZM63.2654 36.7868L67.3454 47.5068L69.5884 46.6532L65.5084 35.9331L63.2654 36.7868ZM69.0461 48.1309L79.2061 42.5309L78.0476 40.4291L67.8876 46.0291L69.0461 48.1309ZM77.4528 41.2322L69.5327 78.7522L71.881 79.2478L79.801 41.7278L77.4528 41.2322Z" fill="#1C1C1C" fill-opacity="0.8"/>
</svg>
