<svg width="104" height="100" viewBox="0 0 104 100" fill="none" xmlns="http://www.w3.org/2000/svg">
<path d="M81 20.8C89 26.9 93.4 38.5 91.4 48C89.4 57.5 80.9 65 73 71.5C65 78 57.5 83.4 48.4 85C39.3 86.6 28.6 84.4 21.6 77.9C14.6 71.4 11.4 60.7 11.2 49.8C11 38.9 13.9 27.8 20.8 21.7C27.8 15.6 38.9 14.4 50.2 14.2C61.5 14 73.1 14.7 81 20.8Z" fill="#6EBDA7" fill-opacity="0.5"/>
<path d="M23.4625 81.16C42.2689 81.16 56.1025 63.9893 56.1025 45.24H53.7025C53.7025 62.9707 40.6561 78.76 23.4625 78.76V81.16ZM56.1025 45.24C56.1025 38.3515 53.9617 32.4927 49.9776 28.3484C45.9879 24.1982 40.2573 21.88 33.3025 21.88V24.28C39.7077 24.28 44.7771 26.4018 48.2474 30.0116C51.7233 33.6273 53.7025 38.8485 53.7025 45.24H56.1025ZM33.3025 21.88C14.5759 21.88 0.742501 38.9709 0.742501 57.8H3.1425C3.1425 39.9891 16.1891 24.28 33.3025 24.28V21.88ZM0.742501 57.8C0.742501 64.6884 2.88325 70.5465 6.8563 74.6905C10.8352 78.8405 16.5457 81.16 23.4625 81.16V78.76C17.0993 78.76 12.0498 76.6395 8.5887 73.0295C5.12176 69.4135 3.1425 64.1916 3.1425 57.8H0.742501ZM24.4225 64.68C22.6586 64.68 21.3638 64.001 20.4733 62.811C19.5497 61.5768 18.9825 59.6815 18.9825 57.16H16.5825C16.5825 59.9985 17.2153 62.4632 18.5517 64.249C19.9212 66.079 21.9464 67.08 24.4225 67.08V64.68ZM18.9825 57.16C18.9825 52.8088 20.4855 48.0428 22.9746 44.3851C25.4752 40.7106 28.8144 38.36 32.4225 38.36V35.96C27.7106 35.96 23.7298 39.0094 20.9904 43.0349C18.2395 47.0772 16.5825 52.3112 16.5825 57.16H18.9825ZM32.4225 38.36C34.1864 38.36 35.4812 39.039 36.3717 40.229C37.2953 41.4632 37.8625 43.3585 37.8625 45.88H40.2625C40.2625 43.0415 39.6297 40.5768 38.2933 38.791C36.9238 36.961 34.8986 35.96 32.4225 35.96V38.36ZM37.8625 45.88C37.8625 50.1866 36.3422 54.953 33.8408 58.6243C31.3257 62.3157 27.9853 64.68 24.4225 64.68V67.08C29.0997 67.08 33.0793 64.0043 35.8242 59.9757C38.5828 55.927 40.2625 50.6934 40.2625 45.88H37.8625ZM90.7225 51L90.3944 49.8457L85.9311 51.1142L90.4498 52.1686L90.7225 51ZM60.7225 32.36L59.9041 31.4823L59.1453 32.1899L59.7359 33.0431L60.7225 32.36ZM67.9225 42.76L66.9359 43.4431L67.6697 44.503L68.6744 43.6952L67.9225 42.76ZM87.2825 39.96L88.4568 40.2072L88.4598 40.1929L88.4624 40.1785L87.2825 39.96ZM72.2425 45V43.8H71.2682L71.0681 44.7535L72.2425 45ZM69.5225 57.96L68.3481 57.7135L68.041 59.1765L69.5358 59.1599L69.5225 57.96ZM76.7225 57.88L76.7358 59.0799L76.7389 59.0799L76.7225 57.88ZM62.2425 61L63.1549 60.2206L62.3389 59.2652L61.422 60.1243L62.2425 61ZM52.0825 70.52L51.262 69.6443L50.4698 70.3866L51.1293 71.2489L52.0825 70.52ZM74.4025 81.24C81.1156 81.24 87.6413 79.4721 92.5255 76.1635C97.4307 72.8406 100.723 67.9202 100.723 61.72H98.3225C98.3225 66.9598 95.5743 71.1994 91.1795 74.1765C86.7637 77.1679 80.7294 78.84 74.4025 78.84V81.24ZM100.723 61.72C100.723 55.2175 96.2292 51.0527 90.9952 49.8314L90.4498 52.1686C94.8158 53.1873 98.3225 56.5425 98.3225 61.72H100.723ZM91.0506 52.1543C98.9656 49.9047 104.723 44.5998 104.723 36.44H102.323C102.323 43.1602 97.6794 47.7753 90.3944 49.8457L91.0506 52.1543ZM104.723 36.44C104.723 32.1675 102.832 28.4694 99.2567 25.8784C95.718 23.3136 90.6031 21.88 84.1625 21.88V24.28C90.2819 24.28 94.847 25.6464 97.8483 27.8216C100.813 29.9706 102.323 32.9525 102.323 36.44H104.723ZM84.1625 21.88C73.8197 21.88 66.016 25.7835 59.9041 31.4823L61.5409 33.2377C67.269 27.8965 74.5053 24.28 84.1625 24.28V21.88ZM59.7359 33.0431L66.9359 43.4431L68.9091 42.0769L61.7091 31.6769L59.7359 33.0431ZM68.6744 43.6952C72.6802 40.4748 76.9727 38.12 81.6025 38.12V35.72C76.1523 35.72 71.3248 38.4852 67.1706 41.8247L68.6744 43.6952ZM81.6025 38.12C83.5688 38.12 84.8472 38.3453 85.5514 38.7011C85.8778 38.866 86.0067 39.022 86.062 39.1282C86.1138 39.2275 86.165 39.4042 86.1026 39.7415L88.4624 40.1785C88.6 39.4358 88.5412 38.6925 88.1905 38.0193C87.8433 37.353 87.2772 36.884 86.6336 36.5589C85.3978 35.9347 83.6362 35.72 81.6025 35.72V38.12ZM86.1082 39.7128C85.645 41.913 83.2281 43.8 78.3225 43.8V46.2C83.6569 46.2 87.64 44.087 88.4568 40.2072L86.1082 39.7128ZM78.3225 43.8H72.2425V46.2H78.3225V43.8ZM71.0681 44.7535L68.3481 57.7135L70.6969 58.2065L73.4169 45.2465L71.0681 44.7535ZM69.5358 59.1599L76.7358 59.0799L76.7092 56.6801L69.5092 56.7601L69.5358 59.1599ZM76.7389 59.0799C79.6679 59.0398 81.3278 59.1895 82.2316 59.4745C82.6633 59.6106 82.7954 59.7402 82.8276 59.7792C82.8404 59.7948 82.8825 59.8404 82.8825 60.04H85.2825C85.2825 59.4396 85.1346 58.8052 84.6799 58.2533C84.2446 57.7248 83.6317 57.3994 82.9534 57.1855C81.6372 56.7705 79.6171 56.6402 76.7061 56.6801L76.7389 59.0799ZM82.8825 60.04C82.8825 61.2761 82.1053 62.4855 80.5358 63.4466C78.9745 64.4027 76.7795 65 74.4025 65V67.4C77.1455 67.4 79.7905 66.7173 81.7892 65.4934C83.7797 64.2745 85.2825 62.4039 85.2825 60.04H82.8825ZM74.4025 65C70.4785 65 66.1415 63.7171 63.1549 60.2206L61.3301 61.7794C64.9035 65.9629 70.0065 67.4 74.4025 67.4V65ZM61.422 60.1243L51.262 69.6443L52.903 71.3957L63.063 61.8757L61.422 60.1243ZM51.1293 71.2489C55.545 77.0234 63.1187 81.24 74.4025 81.24V78.84C63.7663 78.84 56.94 74.8966 53.0357 69.7911L51.1293 71.2489Z" fill="#1C1C1C" fill-opacity="0.8"/>
</svg>
